<svg width="106" height="106" viewBox="0 0 106 106" fill="none" xmlns="http://www.w3.org/2000/svg">
<circle cx="53" cy="53" r="44" fill="white"/>
<path d="M100 53C102.883 53 104.324 53 105.219 51.9979C106.114 50.9958 105.963 49.6681 105.661 47.0127C105.019 41.3661 103.471 35.8462 101.066 30.6688C97.8154 23.6728 93.0771 17.4707 87.1817 12.4956C81.2863 7.52042 74.3759 3.89218 66.9331 1.86422C61.4249 0.363389 55.7234 -0.234192 50.0493 0.0821971C47.3809 0.230984 46.0467 0.305377 45.2093 1.35572C44.3719 2.40606 44.6142 3.827 45.0988 6.66889L52.1488 48.0087C52.5554 50.3932 52.7588 51.5854 53.5969 52.2927C54.435 53 55.6445 53 58.0634 53H100Z" fill="url(#paint0_linear_1007_2533)"/>
<path d="M64.164 31.104C64.932 30.464 65.544 29.932 66 29.508C66.456 29.076 66.836 28.628 67.14 28.164C67.444 27.7 67.596 27.244 67.596 26.796C67.596 26.388 67.5 26.068 67.308 25.836C67.116 25.604 66.82 25.488 66.42 25.488C66.02 25.488 65.712 25.624 65.496 25.896C65.28 26.16 65.168 26.524 65.16 26.988H63.528C63.56 26.028 63.844 25.3 64.38 24.804C64.924 24.308 65.612 24.06 66.444 24.06C67.356 24.06 68.056 24.304 68.544 24.792C69.032 25.272 69.276 25.908 69.276 26.7C69.276 27.324 69.108 27.92 68.772 28.488C68.436 29.056 68.052 29.552 67.62 29.976C67.188 30.392 66.624 30.896 65.928 31.488H69.468V32.88H63.54V31.632L64.164 31.104ZM70.5266 28.512C70.5266 27.128 70.7746 26.044 71.2706 25.26C71.7746 24.476 72.6066 24.084 73.7666 24.084C74.9266 24.084 75.7546 24.476 76.2506 25.26C76.7546 26.044 77.0066 27.128 77.0066 28.512C77.0066 29.904 76.7546 30.996 76.2506 31.788C75.7546 32.58 74.9266 32.976 73.7666 32.976C72.6066 32.976 71.7746 32.58 71.2706 31.788C70.7746 30.996 70.5266 29.904 70.5266 28.512ZM75.3506 28.512C75.3506 27.92 75.3106 27.424 75.2306 27.024C75.1586 26.616 75.0066 26.284 74.7746 26.028C74.5506 25.772 74.2146 25.644 73.7666 25.644C73.3186 25.644 72.9786 25.772 72.7466 26.028C72.5226 26.284 72.3706 26.616 72.2906 27.024C72.2186 27.424 72.1826 27.92 72.1826 28.512C72.1826 29.12 72.2186 29.632 72.2906 30.048C72.3626 30.456 72.5146 30.788 72.7466 31.044C72.9786 31.292 73.3186 31.416 73.7666 31.416C74.2146 31.416 74.5546 31.292 74.7866 31.044C75.0186 30.788 75.1706 30.456 75.2426 30.048C75.3146 29.632 75.3506 29.12 75.3506 28.512ZM80.3124 31.236L78.9084 34.608H77.8284L78.6084 31.236H80.3124ZM81.1273 25.8V24.252H84.0193V33H82.2913V25.8H81.1273Z" fill="white"/>
<defs>
<linearGradient id="paint0_linear_1007_2533" x1="106" y1="106" x2="-35.2761" y2="95.0679" gradientUnits="userSpaceOnUse">
<stop stop-color="#C58BF2"/>
<stop offset="1" stop-color="#EEA4CE"/>
</linearGradient>
</defs>
</svg>
